<?xml version="1.0" encoding="UTF-8" standalone="no"?>
<svg
   xmlns:dc="http://purl.org/dc/elements/1.1/"
   xmlns:cc="http://creativecommons.org/ns#"
   xmlns:rdf="http://www.w3.org/1999/02/22-rdf-syntax-ns#"
   xmlns:svg="http://www.w3.org/2000/svg"
   xmlns="http://www.w3.org/2000/svg"
   xmlns:sodipodi="http://sodipodi.sourceforge.net/DTD/sodipodi-0.dtd"
   xmlns:inkscape="http://www.inkscape.org/namespaces/inkscape"
   version="1.1"
   x="0px"
   y="0px"
   viewBox="0 0 92 96.059998"
   enable-background="new 0 0 96 96"
   xml:space="preserve"
   id="svg2"
   inkscape:version="0.91 r13725"
   sodipodi:docname="Tooth_noun_70525_cc_purple.svg"
   width="92"
   height="96.059998"><metadata
     id="metadata14"><rdf:RDF><cc:Work
         rdf:about=""><dc:format>image/svg+xml</dc:format><dc:type
           rdf:resource="http://purl.org/dc/dcmitype/StillImage" /><dc:title></dc:title></cc:Work></rdf:RDF></metadata><defs
     id="defs12" /><sodipodi:namedview
     pagecolor="#ffffff"
     bordercolor="#666666"
     borderopacity="1"
     objecttolerance="10"
     gridtolerance="10"
     guidetolerance="10"
     inkscape:pageopacity="0"
     inkscape:pageshadow="2"
     inkscape:window-width="654"
     inkscape:window-height="480"
     id="namedview10"
     showgrid="false"
     fit-margin-top="0"
     fit-margin-left="0"
     fit-margin-right="0"
     fit-margin-bottom="0"
     inkscape:zoom="1.9666667"
     inkscape:cx="61.762712"
     inkscape:cy="36.032"
     inkscape:window-x="1411"
     inkscape:window-y="185"
     inkscape:window-maximized="0"
     inkscape:current-layer="svg2" /><path
     d="M 67.992,0 C 63.804,0 59.948,1.072 56.224,2.104 53.368,2.9 50.64,3.624 47.892,3.88 c 6.463,3.992 11.979,8.648 14.584,12.04 0.672,0.88 0.5,2.132 -0.369,2.808 -0.367,0.28 -0.795,0.412 -1.219,0.412 -0.601,0 -1.193,-0.268 -1.584,-0.78 C 55.304,13.14 43.22,4.276 32.387,1.04 30,0.452 27.324,0 24,0 10.764,0 0,10.764 0,24 0,30.9 2.932,37.392 8.08,41.956 8.276,63.86 15.324,96.06 25.876,96.06 30.988,96.06 32.68,89.012 34.82,80.092 37.08,70.676 39.644,60 46,60 c 6.352,0 8.92,10.68 11.18,20.092 2.141,8.92 3.828,15.968 8.94,15.968 6.147,0 10.403,-10.484 12.888,-19.269 C 82,66.204 83.82,53.253 83.92,41.952 89.068,37.384 92,30.896 92,23.996 91.992,10.764 81.232,0 67.992,0 Z"
     id="path4"
     inkscape:connector-curvature="0"
     style="fill:#800080" /></svg>